<svg width="32" height="32" viewBox="0 0 32 32" fill="none" xmlns="http://www.w3.org/2000/svg">
<g filter="url(#filter0_d_10_57)">
<path d="M26.9939 15.0476C26.973 15.0196 26.9504 14.9934 26.9262 14.9684C26.2285 14.096 24.9673 13.9208 24.0878 14.5809C22.8203 15.5151 20.6519 17.0871 19.9281 17.6117L16.7665 17.3638L18.7009 16.9404C19.7371 16.7897 20.4799 15.8754 20.435 14.7962C20.4348 14.7848 20.434 14.7733 20.4329 14.7622C20.3431 13.6838 19.4669 12.8708 18.395 12.8708H12.5447C12.0693 12.8708 11.6258 12.9924 11.2263 13.2321C11.2103 13.2419 11.1945 13.252 11.179 13.2629L4.94772 17.6166C4.5782 17.8749 4.48788 18.384 4.74606 18.7532C5.00402 19.123 5.51341 19.2136 5.88264 18.9548L12.0878 14.6193C12.226 14.5412 12.3757 14.5028 12.5449 14.5028H18.3953C18.6124 14.5028 18.7784 14.6574 18.8045 14.8805C18.8065 15.0769 18.7006 15.2952 18.4573 15.3256C18.4329 15.3286 18.4083 15.3327 18.3841 15.3382L14.9011 16.1001C14.6293 16.1596 14.4064 16.3534 14.3098 16.6143C14.2132 16.8756 14.2562 17.1678 14.4241 17.3898L15.3493 18.6143C15.49 18.8007 15.7038 18.918 15.9368 18.9362L20.1 19.2627C20.2927 19.2766 20.4856 19.2235 20.6423 19.1101C20.6709 19.0894 23.5202 17.0271 25.0616 15.891C25.2377 15.7591 25.5177 15.8091 25.66 15.9996C25.6758 16.0205 25.6927 16.0409 25.7103 16.06C25.82 16.2393 25.7781 16.4693 25.6042 16.5996L20.0824 20.7616C19.9199 20.8832 19.7507 20.9295 19.5572 20.9039L11.5028 19.8971C11.2829 19.8697 11.062 19.9325 10.8895 20.0713L7.81464 22.5477C7.46336 22.8307 7.40809 23.3447 7.69085 23.6957C7.85195 23.896 8.08839 24 8.32703 24C8.50689 24 8.68783 23.9409 8.83835 23.8198L11.6435 21.5605L19.3478 22.5235C19.9622 22.6054 20.5543 22.4478 21.0629 22.0669L26.5856 17.905C27.4859 17.2296 27.6691 15.948 26.9939 15.0476Z" fill="#25282B"/>
<path d="M19.7278 2.83002C19.2769 2.83002 18.9115 3.19545 18.9115 3.64635V8.54431C18.9115 8.9952 19.2769 9.36064 19.7278 9.36064C20.1787 9.36064 20.5442 8.9952 20.5442 8.54431V3.64635C20.5442 3.19545 20.1787 2.83002 19.7278 2.83002Z" fill="#25282B"/>
<path d="M22.1768 5.27878H17.2789C16.828 5.27878 16.4625 5.64422 16.4625 6.0951C16.4625 6.54599 16.828 6.91143 17.2789 6.91143H22.1768C22.6277 6.91143 22.9931 6.54599 22.9931 6.0951C22.9931 5.64422 22.6277 5.27878 22.1768 5.27878Z" fill="#25282B"/>
<path d="M19.7278 0C16.3667 0 13.6328 2.73417 13.6328 6.09525C13.6328 9.45633 16.3667 12.1905 19.7278 12.1905C23.0886 12.1905 25.823 9.45638 25.823 6.09525C25.823 2.73412 23.0889 0 19.7278 0ZM19.7278 10.5578C17.2671 10.5578 15.2655 8.55595 15.2655 6.09525C15.2655 3.63455 17.2671 1.63266 19.7278 1.63266C22.1884 1.63266 24.1904 3.63455 24.1904 6.09525C24.1904 8.55595 22.1885 10.5578 19.7278 10.5578Z" fill="#25282B"/>
</g>
<defs>
<filter id="filter0_d_10_57" x="0" y="0" width="32" height="32" filterUnits="userSpaceOnUse" color-interpolation-filters="sRGB">
<feFlood flood-opacity="0" result="BackgroundImageFix"/>
<feColorMatrix in="SourceAlpha" type="matrix" values="0 0 0 0 0 0 0 0 0 0 0 0 0 0 0 0 0 0 127 0" result="hardAlpha"/>
<feOffset dy="4"/>
<feGaussianBlur stdDeviation="2"/>
<feComposite in2="hardAlpha" operator="out"/>
<feColorMatrix type="matrix" values="0 0 0 0 0 0 0 0 0 0 0 0 0 0 0 0 0 0 0.25 0"/>
<feBlend mode="normal" in2="BackgroundImageFix" result="effect1_dropShadow_10_57"/>
<feBlend mode="normal" in="SourceGraphic" in2="effect1_dropShadow_10_57" result="shape"/>
</filter>
</defs>
</svg>
